<svg id="banner-logo" xmlns="http://www.w3.org/2000/svg" xmlns:xlink="http://www.w3.org/1999/xlink" width="673" height="174" viewBox="0 0 673 174">
  <defs>
    <linearGradient id="linear-gradient" x1="-0.138" y1="0.701" x2="1.787" y2="0.089" gradientUnits="objectBoundingBox">
      <stop offset="0" stop-color="#77ba44"/>
      <stop offset="0.654" stop-color="#5fa56d"/>
      <stop offset="1" stop-color="#5ea46f"/>
    </linearGradient>
  </defs>
  <g id="Retângulo_12" data-name="Retângulo 12" fill="#191e26" stroke="#fff" stroke-width="1">
    <rect width="673" height="174" rx="29" stroke="none"/>
    <rect x="0.5" y="0.5" width="672" height="173" rx="28.5" fill="none"/>
  </g>
  <g id="Grupo_4" data-name="Grupo 4" transform="translate(177.554 52.877)">
    <text id="SmartHome" transform="translate(72.059 48.009)" fill="#fff" font-size="41" font-family="Poppins-Medium, Poppins" font-weight="500" letter-spacing="-0.02em"><tspan x="0" y="0">Smart</tspan><tspan y="0" font-family="Poppins-Light, Poppins" font-weight="300">Home</tspan></text>
    <g id="Camada_x0020_1">
      <path id="Caminho_1" data-name="Caminho 1" d="M0,21.158l.172,26.3c.586.541,20.857,19.751,22.559,20.463A1.425,1.425,0,0,0,24.742,67l.019-65.926a1.525,1.525,0,0,0-1.959-1C22.068.29.085,20.9,0,21.158ZM47.34,28.1c.047,1.294,0,2.694,0,4V47.594c.058,3.214.013,2.14-5.406,2.356v5.362c.4.314,6.313,1.406,7.368,1.617,3.977.392,3.079-1.321,3.3-4.911L52.579,11.8c-.211-1.6-2.152-.785-3.218-.6-2.309.4-4.677.878-6.958,1.443-.388.134-.45.286-.464.837l.012,4.895c0,1.038-.154,1.826.354,2.508.568.763,5.024,6.874,5.036,7.217ZM27.764,9.231l-.035,5.553c-.058.888.316,1,.895.479l4.252-3.443c.833-.758,1.066-.843,1.675-.382,0,1.689.025,18.68-.164,19.07-.244.241-2.877.037-3.349.119l-.263.087c-.331-.5-.2,5.688-.2,6.933a2.974,2.974,0,0,0,.023.494c.1.481.413.471.836.477l2.108-.012c1.2-.009.964.6.963,1.732v7.908c0,1.266.271,1.725-1.088,1.723-.277,0-5-.057-5.591-.034l.02,8.968c.022.037,8.02,3.879,8.921,4.056,1.849.362,1.868-.482,1.867-2.254L38.587,6.128c.111-2.971-10.777,3.017-10.823,3.1ZM13.639,28.551c0,3.794-.024,20.719,0,21.371l7.218.028c.216-.482.249-25.446.088-27.782l-7.306,6.383Z" transform="translate(0 0.002)" fill-rule="evenodd" fill="url(#linear-gradient)"/>
    </g>
  </g>
</svg>
